<?xml version="1.0" encoding="UTF-8" standalone="no"?>
<svg
   width="144.08299"
   height="144"
   id="facebook"
   version="1.1"
   sodipodi:docname="facebook.svg"
   inkscape:version="1.3.2 (091e20e, 2023-11-25, custom)"
   inkscape:export-filename="facebook.png"
   inkscape:export-xdpi="96"
   inkscape:export-ydpi="96"
   xmlns:inkscape="http://www.inkscape.org/namespaces/inkscape"
   xmlns:sodipodi="http://sodipodi.sourceforge.net/DTD/sodipodi-0.dtd"
   xmlns="http://www.w3.org/2000/svg"
   xmlns:svg="http://www.w3.org/2000/svg">
  <defs
     id="defs2" />
  <sodipodi:namedview
     id="namedview2"
     pagecolor="#ffffff"
     bordercolor="#000000"
     borderopacity="0.25"
     inkscape:showpageshadow="2"
     inkscape:pageopacity="0.0"
     inkscape:pagecheckerboard="0"
     inkscape:deskcolor="#d1d1d1"
     inkscape:zoom="8"
     inkscape:cx="100.5"
     inkscape:cy="71"
     inkscape:window-width="2880"
     inkscape:window-height="1586"
     inkscape:window-x="2869"
     inkscape:window-y="-11"
     inkscape:window-maximized="1"
     inkscape:current-layer="facebook" />
  <path
     d="m 72.041,11.166 c -33.543,0 -60.833,27.29 -60.833,60.834 0,33.545 27.29,60.834 60.833,60.834 33.544,0 60.835,-27.289 60.835,-60.834 C 132.875,38.456 105.584,11.166 72.041,11.166 Z m 0,115.668 c -30.235,0 -54.833,-24.598 -54.833,-54.834 0,-30.235 24.598,-54.834 54.833,-54.834 30.235,0 54.835,24.599 54.835,54.834 -0.001,30.236 -24.6,54.834 -54.835,54.834 z"
     id="path1"
     style="fill:#ff664b;fill-opacity:1" />
  <path
     d="M 90.792,36.304 H 77.596 a 0.877,0.877 0 0 0 -0.09,0.004 C 64.183,36.35 62.443,45.653 62.436,53.784 a 1.014,1.014 0 0 0 -0.028,0.235 v 5.708 H 53.29 a 1,1 0 0 0 -1,1 v 14.077 a 1,1 0 0 0 1,1 h 9.118 v 30.891 a 1,1 0 0 0 1,1 h 13.307 a 1,1 0 0 0 1,-1 v -30.89 h 13.076 a 1,1 0 0 0 1,-1 V 60.728 a 1,1 0 0 0 -1,-1 H 76.715 v -7.567 h 14.076 a 1,1 0 0 0 1,-1 V 37.304 a 0.999,0.999 0 0 0 -0.999,-1 z"
     id="path2"
     style="display:inline;opacity:1;fill:#ff664b;fill-opacity:1;fill-rule:nonzero" />
</svg>
