<?xml version="1.0" encoding="UTF-8" standalone="no"?>
<svg
   width="144.08299"
   height="144"
   id="twitter"
   version="1.1"
   sodipodi:docname="twitter.svg"
   xmlns:inkscape="http://www.inkscape.org/namespaces/inkscape"
   xmlns:sodipodi="http://sodipodi.sourceforge.net/DTD/sodipodi-0.dtd"
   xmlns="http://www.w3.org/2000/svg"
   xmlns:svg="http://www.w3.org/2000/svg">
  <defs
     id="defs2" />
  <sodipodi:namedview
     id="namedview2"
     pagecolor="#ffffff"
     bordercolor="#000000"
     borderopacity="0.25"
     inkscape:showpageshadow="2"
     inkscape:pageopacity="0.0"
     inkscape:pagecheckerboard="0"
     inkscape:deskcolor="#d1d1d1" />
  <path
     d="m 72.041,11.166 c -33.543,0 -60.833,27.29 -60.833,60.834 0,33.545 27.29,60.834 60.833,60.834 33.544,0 60.835,-27.289 60.835,-60.834 C 132.875,38.456 105.584,11.166 72.041,11.166 Z m 0,115.668 c -30.235,0 -54.833,-24.598 -54.833,-54.834 0,-30.235 24.598,-54.834 54.833,-54.834 30.235,0 54.835,24.599 54.835,54.834 -0.001,30.236 -24.6,54.834 -54.835,54.834 z"
     id="path1"
     style="fill:#ff664b;fill-opacity:1" />
  <path
     d="m 99.208,52.18 c 1.398,-0.722 4.746,-2.867 6.324,-7.471 0,0 -3.803,2.75 -8.979,3.074 l -0.094,0.052 A 14.453,14.453 0 0 0 85.771,43.132 c -8.008,0 -14.499,6.492 -14.499,14.5 0,1.215 0.151,2.395 0.434,3.523 l -0.07,-0.105 c 0,0 -15.53,0.89 -30.171,-15.127 0,0 -6.473,11.001 4.61,19.414 -2.427,0.404 -6.713,-1.78 -6.713,-1.78 0,0 0.242,11.566 11.728,14.398 -1.86,0.486 -5.339,0.646 -6.471,0.162 0,0 1.698,8.816 13.428,10.354 -2.993,1.699 -8.574,6.875 -21.194,5.904 0,0 9.062,7.441 25.887,6.391 16.825,-1.05 29.04,-12.377 33.974,-24.348 4.934,-11.971 3.561,-18.787 3.561,-18.787 0,0 4.123,-2.164 6.957,-7.34 -1.309,0.392 -6.164,1.578 -7.971,2.017 A 4.897,4.897 0 0 1 99.208,52.18 Z"
     id="path2"
     style="fill:#ff664b;fill-opacity:1" />
</svg>
