<?xml version="1.0" encoding="UTF-8" standalone="no"?>
<svg
   width="144.08299"
   height="144"
   id="youtube"
   version="1.1"
   sodipodi:docname="youtube.svg"
   xmlns:inkscape="http://www.inkscape.org/namespaces/inkscape"
   xmlns:sodipodi="http://sodipodi.sourceforge.net/DTD/sodipodi-0.dtd"
   xmlns="http://www.w3.org/2000/svg"
   xmlns:svg="http://www.w3.org/2000/svg">
  <defs
     id="defs2" />
  <sodipodi:namedview
     id="namedview2"
     pagecolor="#ffffff"
     bordercolor="#000000"
     borderopacity="0.25"
     inkscape:showpageshadow="2"
     inkscape:pageopacity="0.0"
     inkscape:pagecheckerboard="0"
     inkscape:deskcolor="#d1d1d1" />
  <path
     d="m 72.041,11.166 c -33.543,0 -60.833,27.29 -60.833,60.834 0,33.544 27.29,60.834 60.833,60.834 33.544,0 60.835,-27.29 60.835,-60.834 0,-33.544 -27.292,-60.834 -60.835,-60.834 z m 0,115.668 c -30.235,0 -54.833,-24.599 -54.833,-54.834 0,-30.235 24.598,-54.834 54.833,-54.834 30.235,0 54.835,24.599 54.835,54.834 0,30.235 -24.6,54.834 -54.835,54.834 z"
     id="path1"
     style="fill:#ff664b;fill-opacity:1" />
  <path
     d="m 96.375,50.418 c 0,0 -6.875,-1 -24.75,-1 -17.938,0 -24.251,1 -24.251,1 a 8.05,8.05 0 0 0 -8.051,8.05 v 26.563 a 8.05,8.05 0 0 0 8.051,8.049 c 0,0 6.313,1 24.271,1 17.854,0 24.729,-1 24.729,-1 a 8.051,8.051 0 0 0 8.051,-8.049 V 58.468 a 8.05,8.05 0 0 0 -8.05,-8.05 z M 62.019,84.496 V 59.146 L 83.973,71.82 Z"
     id="path2"
     style="fill:#ff664b;fill-opacity:1" />
</svg>
